# xmcd
#
# Track frame offsets:
#	182
#	34432
#	63592
#	92232
#	125152
#	150252
#	173585
#	202687
#	218427
#	246677
#
# Disc length: 3653 seconds
#
# Revision: 2
# Processed by: cddbd v1.5.1PL2 Copyright (c) Steve Scherf et al.
# Submitted via: EasyCDDAExtractor 8.2.3.1
#
DISCID=880e430a
DTITLE=Various Artist - Jungle Massive - Collective 2 [CD1]
DYEAR=1994
DGENRE=Drum and Bass
TTITLE0=L Double and Younghead - Come Kross
TTITLE1=Rogue Unit - Dance of the Sarooes (Nookie VIP Mix)
TTITLE2=Shades Of Rhythm - Sweet Sensation pt 3 (Ray Keith VIP Mix)
TTITLE3=Urban Shakedown - Some Justice (VIP Mix)
TTITLE4=Krome and Time - License
TTITLE5=Remarc - Drum and Bass Wise
TTITLE6=Aladdin - We Enter (VIP Mix)
TTITLE7=Demolition Man - Fire
TTITLE8=DRS and Kenny Ken - Everyman (Exclusive)
TTITLE9=D to the C - Conscious Livin'
EXTD=
EXTT0=
EXTT1=
EXTT2=
EXTT3=
EXTT4=
EXTT5=
EXTT6=
EXTT7=
EXTT8=
EXTT9=
PLAYORDER=
